<?xml version="1.0" encoding="iso-8859-1"?>
<!-- Generator: Adobe Illustrator 16.0.0, SVG Export Plug-In . SVG Version: 6.00 Build 0)  -->
<!DOCTYPE svg PUBLIC "-//W3C//DTD SVG 1.1//EN" "http://www.w3.org/Graphics/SVG/1.1/DTD/svg11.dtd">
<svg version="1.1" id="Capa_1" xmlns="http://www.w3.org/2000/svg" xmlns:xlink="http://www.w3.org/1999/xlink" x="0px" y="0px"
	 width="612px" height="612px" viewBox="0 0 612 612" style="enable-background:new 0 0 612 612;" xml:space="preserve">
<g>
	<g id="crop">
		<g>
			<path d="M592.258,493.549H513.29V108.126l33.384-34.943c7.778-7.778,7.778-20.414,0-28.192s-20.394-7.778-28.152,0
				l-32.475,33.976H118.452V19.742C118.452,8.844,109.607,0,98.709,0C87.812,0,78.968,8.844,78.968,19.742v59.226H19.742
				C8.844,78.968,0,87.812,0,98.709c0,10.898,8.844,19.742,19.742,19.742h59.226V513.29c0,1.816,0.572,3.455,1.026,5.113
				c0.198,0.73,0.158,1.521,0.454,2.231c1.994,4.975,5.923,8.903,10.897,10.917c0.849,0.355,1.757,0.315,2.626,0.533
				c1.56,0.395,3.06,0.947,4.738,0.947h375.097v59.226c0,10.897,8.844,19.742,19.742,19.742c10.897,0,19.741-8.845,19.741-19.742
				v-59.226h78.968c10.897,0,19.742-8.845,19.742-19.742S603.155,493.549,592.258,493.549z M118.452,118.452h329.868
				L118.452,463.758V118.452z M473.807,493.549H145.103l328.704-344.103V493.549z"/>
		</g>
	</g>
</g>
<g>
</g>
<g>
</g>
<g>
</g>
<g>
</g>
<g>
</g>
<g>
</g>
<g>
</g>
<g>
</g>
<g>
</g>
<g>
</g>
<g>
</g>
<g>
</g>
<g>
</g>
<g>
</g>
<g>
</g>
</svg>
